<svg xmlns="http://www.w3.org/2000/svg" width="256" height="256"><path fill-opacity=".016" d="M0 128.004v128.004l128.25-.254 128.25-.254.254-127.75L257.008 0H0v128.004m.485.496c0 70.4.119 99.053.265 63.672.146-35.38.146-92.98 0-128C.604 29.153.485 58.1.485 128.5" fill="#1976D2" fill-rule="evenodd"/><path fill-opacity=".083" d="M106.5 1.525C58.7 10.355 19.87 44.337 5.596 89.829c-5.658 18.031-7.244 41.443-4.05 59.79 8.218 47.22 42.576 86.443 88.283 100.785 18.031 5.658 41.443 7.244 59.79 4.05 51.589-8.978 93.241-49.19 103.86-100.269.837-4.024 1.521-8.663 1.521-10.309 0-1.742.418-2.735 1-2.376.65.402.995-4.736.985-14.691-.009-8.42-.362-14.764-.786-14.097-.437.688-1.314-2.247-2.03-6.801-.694-4.407-2.561-11.991-4.15-16.853C235.615 44.979 199.926 12.63 154.5 2.475c-10.196-2.279-37.844-2.827-48-.95M.402 128c0 8.525.154 12.012.341 7.75.188-4.262.188-11.237 0-15.5-.187-4.263-.341-.775-.341 7.75" fill="#1976D2" fill-rule="evenodd"/><path fill-opacity=".135" d="M118 .588C99.904 2.651 83.918 7.177 70.58 14.013 40.722 29.316 18.088 55.031 7.217 86 1.923 101.081.541 109.778.541 128c0 23.438 3.509 38.357 13.731 58.375 17.676 34.618 49.469 58.711 88.728 67.238 11.884 2.581 38.098 2.585 49.96.008 38.734-8.417 71.064-32.927 88.498-67.094 7.433-14.566 13.382-35.223 13.642-47.365.081-3.826.243-4.214.9-2.162.489 1.526.788-2.372.769-10-.021-7.933-.301-11.221-.769-9-.726 3.45-.739 3.434-.868-1.162-.197-6.981-2.755-19.201-6.154-29.404-14.469-43.431-52.013-76.266-97.056-84.885C144.074 1.048 124.097-.107 118 .588M.385 128c0 6.875.16 9.688.355 6.25.196-3.437.196-9.062 0-12.5-.195-3.437-.355-.625-.355 6.25" fill="#1976D2" fill-rule="evenodd"/><path fill-opacity=".186" d="M16.578 65.458C10.887 75.167 4.871 91.85 2.332 104.957.301 115.445.08 138.441 1.91 149c8.214 47.408 42.354 86.476 88.09 100.805 5.225 1.637 12.875 3.561 17 4.274 9.645 1.668 32.355 1.668 42 0 14.229-2.461 33.001-9.402 44.421-16.425 4.516-2.777 4.826-2.583-8.291-5.179-19.204-3.799-44.598-13.548-62.985-24.179-34.787-20.113-63.832-50.977-82.146-87.291-7.489-14.85-15.615-38.114-18.952-54.255-.654-3.163-1.339-5.75-1.523-5.75-.184 0-1.51 2.006-2.946 4.458" fill="#1976D2" fill-rule="evenodd"/></svg>