<svg aria-hidden="true" style="position: absolute; width: 0; height: 0; overflow: hidden" version="1.1" xmlns="http://www.w3.org/2000/svg" xmlns:xlink="http://www.w3.org/1999/xlink">
  <symbol id="_kanban" viewBox="0 0 24 24" fill="none" xmlns="http://www.w3.org/2000/svg">
    <path d="M2.99609 5.99777H21.0036" stroke="currentColor" stroke-linecap="round" stroke-linejoin="round" />
    <path d="M17.0019 12.0002H2.99609" stroke="currentColor" stroke-linecap="round" stroke-linejoin="round" />
    <path d="M2.99609 18.0026H13.0003" stroke="currentColor" stroke-linecap="round" stroke-linejoin="round" />
  </symbol>

  <symbol id="logo" viewBox="0 0 204 32" fill="none" xmlns="http://www.w3.org/2000/svg" class="">
    <path class="letra-1" d="M21.82 13.2788C26.2661 13.2788 26.6171 17.9588 26.6171 19.3629V31.4726H31.2971V18.1343C31.2971 15.0923 30.6536 12.8692 29.4836 11.5822C28.0796 10.0612 25.9735 9.24219 23.2825 9.24219C21.001 9.24219 18.8949 10.1197 17.0814 11.8162C17.0229 11.8747 16.8474 11.9332 16.7889 11.8747C16.6719 11.8162 16.6134 11.6992 16.6134 11.5822V9.8272H11.7578V31.4141H16.6134V21.0594C16.6719 17.2568 16.9644 16.4378 17.7834 15.2678C18.6609 13.9223 20.0649 13.2788 21.82 13.2788Z" fill="white" data-svg-origin="11.757800102233887 9.24219036102295" transform="matrix(1,0,0,1,0,0)" style="transform-origin: 0px 0px"></path>
    <path class="letra-2" d="M46.3331 8.83398C43.1155 8.83398 40.3075 9.9455 38.0845 12.1685C35.8614 14.3916 34.6914 17.0826 34.6914 20.2417C34.6914 23.5762 35.8029 26.3843 38.026 28.6073C40.249 30.8303 42.9985 32.0004 46.2746 32.0004C49.6091 32.0004 52.4172 30.8888 54.6402 28.6658C56.8633 26.4428 58.0333 23.6932 58.0333 20.4172C58.0333 17.1996 56.9218 14.3916 54.6402 12.1685C52.3587 9.9455 49.6091 8.83398 46.3331 8.83398ZM51.4227 25.7993C50.1357 27.1448 48.4391 27.8468 46.3331 27.8468C44.2271 27.8468 42.5305 27.1448 41.2435 25.7408C40.015 24.3952 39.3715 22.5232 39.3715 20.2417C39.3715 18.0771 40.015 16.3221 41.302 14.9766C42.589 13.5726 44.2856 12.8706 46.3331 12.8706C48.4391 12.8706 50.1357 13.5726 51.4227 14.9766C52.7097 16.3221 53.2947 18.1356 53.2947 20.3587C53.2947 22.6402 52.6512 24.4537 51.4227 25.7993Z" fill="white"></path>
    <path class="letra-4" d="M105.243 31.2982V9.41881H100.563V12.1684C100.563 12.2269 100.504 12.2854 100.446 12.2854C100.387 12.2854 100.329 12.2854 100.27 12.2269L99.9193 11.8758C97.8133 9.76981 95.4733 8.7168 92.8992 8.7168C89.8572 8.7168 87.3416 9.82832 85.3526 11.9929C83.3636 14.1574 82.3105 16.9069 82.3105 20.183C82.3105 23.5175 83.3636 26.3256 85.3526 28.5486C87.4001 30.7132 89.9742 31.8247 93.0747 31.8247C95.5318 31.8247 97.8133 30.8302 99.9778 28.8996L100.329 28.6071C100.387 28.5486 100.446 28.5486 100.504 28.6071C100.563 28.6071 100.563 28.6656 100.563 28.7241V31.1812H105.243V31.2982ZM98.9833 25.8576C97.6963 27.2616 95.9998 27.9636 93.8937 27.9636C91.9632 27.9636 90.2667 27.2616 88.9797 25.7991C87.7511 24.3366 87.1076 22.523 87.1076 20.3C87.1076 18.194 87.7511 16.3804 89.0382 14.9764C90.3252 13.5724 92.0217 12.8119 93.9522 12.8119C95.9998 12.8119 97.6963 13.5139 98.9833 14.9179C100.27 16.3804 100.914 18.194 100.914 20.3585C100.914 22.5815 100.27 24.4536 98.9833 25.8576Z" fill="white"></path>
    <path class="letra-5" d="M132.739 31.298V0H128.059V12.1682C128.059 12.2267 128 12.2852 127.942 12.2852C127.883 12.2852 127.825 12.2852 127.766 12.2267L127.415 11.8757C125.309 9.76966 122.969 8.71664 120.337 8.71664C117.295 8.71664 114.779 9.82816 112.79 11.9927C110.801 14.1572 109.748 16.9653 109.748 20.1828C109.748 23.5174 110.801 26.3254 112.79 28.5485C114.838 30.713 117.412 31.8245 120.454 31.8245C123.028 31.8245 125.368 30.83 127.415 28.8995L127.766 28.5485C127.825 28.49 127.883 28.49 127.942 28.49C128 28.49 128.059 28.5485 128.059 28.607V31.1225H132.739V31.298ZM126.479 25.8574C125.192 27.2614 123.496 27.9635 121.39 27.9635C119.459 27.9635 117.763 27.2614 116.476 25.7989C115.247 24.3364 114.604 22.5229 114.604 20.2998C114.604 18.1938 115.247 16.3803 116.534 14.9762C117.821 13.5722 119.518 12.8117 121.448 12.8117C123.496 12.8117 125.192 13.5137 126.479 14.9177C127.766 16.3803 128.41 18.1938 128.41 20.3583C128.41 22.5814 127.766 24.4534 126.479 25.8574Z" fill="white" data-svg-origin="109.74800109863281 0" transform="matrix(1,0,0,1,0,0)" style="transform-origin: 0px 0px"></path>
    <path class="letra-6" d="M159.591 31.2982V9.41881H154.91V12.1684C154.91 12.2269 154.852 12.2854 154.793 12.2854C154.735 12.2854 154.676 12.2854 154.618 12.2269L154.267 11.8758C152.161 9.76981 149.821 8.7168 147.247 8.7168C144.205 8.7168 141.689 9.82832 139.7 11.9929C137.711 14.1574 136.658 16.9069 136.658 20.183C136.658 23.5175 137.711 26.3256 139.7 28.5486C141.748 30.7132 144.322 31.8247 147.422 31.8247C149.879 31.8247 152.161 30.8302 154.325 28.8996L154.676 28.6071C154.735 28.5486 154.794 28.5486 154.852 28.6071C154.911 28.6071 154.91 28.6656 154.91 28.7241V31.1812H159.591V31.2982ZM153.331 25.8576C152.044 27.2616 150.347 27.9636 148.241 27.9636C146.311 27.9636 144.614 27.2616 143.327 25.7991C142.099 24.3951 141.455 22.523 141.455 20.3C141.455 18.194 142.099 16.3804 143.386 14.9764C144.673 13.5724 146.369 12.8119 148.3 12.8119C150.347 12.8119 152.044 13.5139 153.331 14.9179C154.618 16.3804 155.262 18.194 155.262 20.3585C155.262 22.5815 154.618 24.4536 153.331 25.8576Z" fill="white"></path>
    <path class="letra-7" d="M203.35 31.2982V9.41881H198.67V12.1684C198.67 12.2269 198.612 12.2854 198.553 12.2854C198.495 12.2854 198.436 12.2854 198.378 12.2269L198.027 11.8758C195.921 9.76981 193.581 8.7168 191.007 8.7168C187.965 8.7168 185.449 9.82832 183.46 11.9929C181.471 14.1574 180.418 16.9069 180.418 20.183C180.418 23.5175 181.471 26.3256 183.46 28.5486C185.508 30.7132 188.082 31.8247 191.182 31.8247C193.639 31.8247 195.921 30.8302 198.085 28.8996L198.436 28.6071C198.495 28.5486 198.553 28.5486 198.612 28.6071C198.67 28.6071 198.67 28.6656 198.67 28.7241V31.1812H203.35V31.2982ZM197.032 25.8576C195.745 27.2616 194.049 27.9636 191.943 27.9636C190.012 27.9636 188.316 27.2616 187.029 25.7991C185.8 24.3366 185.157 22.523 185.157 20.3C185.157 18.194 185.8 16.3804 187.087 14.9764C188.374 13.5724 190.071 12.8119 192.001 12.8119C194.049 12.8119 195.745 13.5139 197.032 14.9179C198.319 16.3804 198.963 18.194 198.963 20.3585C198.963 22.5815 198.319 24.4536 197.032 25.8576Z" fill="white"></path>
    <path class="letra-3" d="M70.0834 22.3468C70.0249 22.3468 69.9664 22.2883 69.9664 22.2883L63.8823 9.47656H58.6172L69.6154 31.5899H70.4344L81.5496 9.47656H76.2845L70.2004 22.2883C70.2004 22.3468 70.1419 22.3468 70.0834 22.3468Z" fill="white"></path>
    <path class="letra-8" d="M172.578 31.9428C174.333 31.9428 175.678 31.8843 176.907 31.2993V27.1457C176.205 27.3212 175.386 27.4382 174.625 27.4382C172.461 27.4382 171.232 26.2097 171.232 23.9867V13.8075C171.232 13.749 171.291 13.6905 171.349 13.6905H176.965V9.36144H171.349C171.291 9.36144 171.232 9.30294 171.232 9.24444V3.27734H166.552V9.24444C166.552 9.30294 166.493 9.36144 166.435 9.36144H163.627V13.6905H166.435C166.493 13.6905 166.552 13.749 166.552 13.8075V24.3377C166.552 29.1933 168.775 31.9428 172.578 31.9428Z" fill="white" data-svg-origin="163.6269989013672 3.2773399353027344" transform="matrix(1,0,0,1,0,0)" style="transform-origin: 0px 0px"></path>
    <path class="letra-0" d="M3.51006 31.8834C5.44861 31.8834 7.02012 30.3119 7.02012 28.3733C7.02012 26.4348 5.44861 24.8633 3.51006 24.8633C1.57151 24.8633 0 26.4348 0 28.3733C0 30.3119 1.57151 31.8834 3.51006 31.8834Z" fill="#06F784" data-svg-origin="0 24.863300323486328" transform="matrix(1,0,0,1,0,0)" style="transform-origin: 0px 0px"></path>
  </symbol>

  <symbol id="arrow_rounded_up" viewBox="0 0 24 24" fill="none" xmlns="http://www.w3.org/2000/svg">
    <path d="M16 4V15C16 17.75 13.802 20 11.115 20V20H11.145H6" stroke="currentColor" stroke-linecap="round" stroke-linejoin="round" />
    <path d="M11.952 8.048L16 4L20.048 8.048" stroke="currentColor" stroke-linecap="round" stroke-linejoin="round" />
  </symbol>

  <symbol id="icon_config" viewBox="0 0 24 24" fill="none" xmlns="http://www.w3.org/2000/svg">
    <path d="M14.1213 9.87868C15.2929 11.0502 15.2929 12.9497 14.1213 14.1213C12.9497 15.2929 11.0502 15.2929 9.87868 14.1213C8.70711 12.9497 8.70711 11.0502 9.87868 9.87868C11.0502 8.70711 12.9497 8.70711 14.1213 9.87868" stroke="currentColor" stroke-linecap="round" stroke-linejoin="round" />
    <path fill-rule="evenodd" clip-rule="evenodd" d="M16.18 18.725V18.725C16.683 19.228 17.5 19.228 18.003 18.725L18.725 18.003C19.228 17.5 19.228 16.683 18.725 16.18V16.18C18.343 15.798 18.231 15.225 18.441 14.727C18.463 14.674 18.485 14.621 18.506 14.567C18.689 14.101 19.143 13.801 19.643 13.801H19.71C20.422 13.801 20.999 13.224 20.999 12.512V11.491C20.999 10.779 20.422 10.202 19.71 10.202H19.643C19.143 10.202 18.689 9.901 18.506 9.436C18.485 9.382 18.463 9.329 18.441 9.276C18.231 8.778 18.343 8.205 18.725 7.823V7.823C19.228 7.32 19.228 6.503 18.725 6L18.003 5.278C17.5 4.775 16.683 4.775 16.18 5.278V5.278C15.798 5.66 15.225 5.772 14.727 5.562C14.674 5.54 14.621 5.518 14.567 5.497C14.101 5.311 13.8 4.856 13.8 4.356V4.289C13.8 3.577 13.223 3 12.511 3H11.49C10.777 3 10.2 3.577 10.2 4.289V4.356C10.2 4.856 9.899 5.31 9.434 5.493C9.38 5.515 9.327 5.536 9.274 5.559C8.776 5.769 8.203 5.657 7.821 5.275V5.275C7.318 4.772 6.501 4.772 5.998 5.275L5.275 5.997C4.772 6.5 4.772 7.317 5.275 7.82V7.82C5.657 8.202 5.769 8.775 5.559 9.273C5.536 9.327 5.515 9.38 5.494 9.434C5.311 9.899 4.856 10.2 4.356 10.2H4.289C3.577 10.2 3 10.777 3 11.489V12.51C3 13.223 3.577 13.8 4.289 13.8H4.356C4.856 13.8 5.31 14.101 5.493 14.566C5.514 14.62 5.536 14.673 5.558 14.726C5.768 15.224 5.656 15.797 5.274 16.179V16.179C4.771 16.682 4.771 17.499 5.274 18.002L5.996 18.724C6.499 19.227 7.316 19.227 7.819 18.724V18.724C8.201 18.342 8.774 18.23 9.272 18.44C9.325 18.462 9.378 18.484 9.432 18.505C9.898 18.688 10.198 19.142 10.198 19.642V19.709C10.198 20.421 10.775 20.998 11.487 20.998H12.508C13.22 20.998 13.797 20.421 13.797 19.709V19.642C13.797 19.142 14.098 18.688 14.563 18.505C14.617 18.484 14.67 18.462 14.723 18.44C15.224 18.231 15.797 18.343 16.18 18.725V18.725Z" stroke="currentColor" stroke-linecap="round" stroke-linejoin="round" />
  </symbol>

  <symbol id="icon_teste" viewBox="0 0 24 24" fill="none" xmlns="http://www.w3.org/2000/svg">
    <path d="M16.6819 9.31889L10.2923 15.7085C10.1047 15.8962 9.8503 16.0016 9.58499 16.0017H7.99833C7.44581 16.0017 6.99791 15.5538 6.99791 15.0013V13.4146C6.99801 13.149 7.10216 12.894 7.28803 12.7043L14.321 5.5113C15.0467 4.7689 16.0394 4.34783 17.0776 4.342C18.1158 4.33618 19.1132 4.74608 19.8473 5.48029L19.9193 5.55232C20.669 6.29608 21.0894 7.30929 21.0864 8.36533C21.0833 9.42138 20.6572 10.4322 19.9033 11.1717C17.5443 13.4816 14.313 16.697 12.4622 18.5437C11.5243 19.4787 10.254 20.0036 8.92972 20.0033H5.9975C4.33995 20.0033 2.99625 18.6596 2.99625 17.0021V14.0719C2.99625 12.7455 3.52309 11.4734 4.46086 10.5354L10.6794 4.3168" stroke="currentColor" stroke-linecap="round" stroke-linejoin="round" />
  </symbol>

  <symbol id='icon_list' viewBox="0 0 20 20" fill="none" xmlns="http://www.w3.org/2000/svg">
    <path d="M7.49893 5.36411H16.6694" stroke="currentColor" stroke-linecap="round" stroke-linejoin="round" />
    <path d="M16.6694 9.99985H9.16632" stroke="currentColor" stroke-linecap="round" stroke-linejoin="round" />
    <path d="M10.8337 14.6366H16.6694" stroke="currentColor" stroke-linecap="round" stroke-linejoin="round" />
    <path d="M3.74738 4.94727C3.51716 4.94727 3.33054 5.13389 3.33054 5.36411C3.33054 5.59432 3.51716 5.78095 3.74738 5.78095C3.97759 5.78095 4.16422 5.59432 4.16422 5.36411C4.16422 5.13389 3.97759 4.94727 3.74738 4.94727" stroke="currentColor" stroke-linecap="round" stroke-linejoin="round" />
    <path d="M5.41473 9.58301C5.18452 9.58301 4.99789 9.76963 4.99789 9.99985C4.99789 10.2301 5.18452 10.4167 5.41473 10.4167C5.64495 10.4167 5.83157 10.2301 5.83157 9.99985C5.83157 9.76963 5.64495 9.58301 5.41473 9.58301" stroke="currentColor" stroke-linecap="round" stroke-linejoin="round" />
    <path d="M7.08209 14.2197C6.85188 14.2197 6.66525 14.4064 6.66525 14.6366C6.66525 14.8668 6.85188 15.0534 7.08209 15.0534C7.31231 15.0534 7.49893 14.8668 7.49893 14.6366C7.49893 14.4064 7.31231 14.2197 7.08209 14.2197" stroke="currentColor" stroke-linecap="round" stroke-linejoin="round" />
  </symbol>

  <symbol id='icon_add' viewBox="0 0 20 20" fill="none" xmlns="http://www.w3.org/2000/svg">
    <path d="M9.99998 15.8337L9.99998 4.16699M15.8333 10.0003L4.16665 10.0003" stroke="currentColor" stroke-linecap="round" stroke-linejoin="round" />
  </symbol>
  <symbol id="icon_quadro" viewBox="0 0 24 24" fill="none" xmlns="http://www.w3.org/2000/svg">
    <path fill-rule="evenodd" clip-rule="evenodd" d="M8.99927 6.99805C9.55155 6.99805 9.99927 7.44576 9.99927 7.99805V20.0039C9.99927 20.5562 9.55155 21.0039 8.99927 21.0039H6.9976C6.44532 21.0039 5.9976 20.5562 5.9976 20.0039L5.9976 7.99805C5.9976 7.44576 6.44532 6.99805 6.9976 6.99805H8.99927Z" stroke="#06F784" stroke-linecap="round" stroke-linejoin="round" />
    <path fill-rule="evenodd" clip-rule="evenodd" d="M17.0027 6.99805C17.555 6.99805 18.0027 7.44576 18.0027 7.99805V14.0014C18.0027 14.5537 17.555 15.0014 17.0027 15.0014H15.001C14.4487 15.0014 14.001 14.5537 14.001 14.0014V7.99805C14.001 7.44576 14.4487 6.99805 15.001 6.99805H17.0027Z" stroke="#06F784" stroke-linecap="round" stroke-linejoin="round" />
    <path d="M20.0035 2.9963H3.99683" stroke="currentColor" stroke-linecap="round" stroke-linejoin="round" />
  </symbol>

  <symbol id="icon_tree_points" viewBox="0 0 20 20" fill="none" xmlns="http://www.w3.org/2000/svg">
    <path d="M15.4189 9.99985C15.4189 10.2301 15.2323 10.4167 15.002 10.4167C14.7718 10.4167 14.5852 10.2301 14.5852 9.99985C14.5852 9.76963 14.7718 9.58301 15.002 9.58301C15.2323 9.58301 15.4189 9.76963 15.4189 9.99985" stroke="currentColor" stroke-linecap="round" stroke-linejoin="round" />
    <path d="M10.4169 9.99985C10.4169 10.2301 10.2303 10.4167 10.0001 10.4167C9.76988 10.4167 9.58325 10.2301 9.58325 9.99985C9.58325 9.76963 9.76988 9.58301 10.0001 9.58301C10.2303 9.58301 10.4169 9.76963 10.4169 9.99985" stroke="currentColor" stroke-linecap="round" stroke-linejoin="round" />
    <path d="M5.41473 9.99985C5.41473 10.2301 5.22811 10.4167 4.99789 10.4167C4.76768 10.4167 4.58105 10.2301 4.58105 9.99985C4.58105 9.76963 4.76768 9.58301 4.99789 9.58301C5.22811 9.58301 5.41473 9.76963 5.41473 9.99985" stroke="currentColor" stroke-linecap="round" stroke-linejoin="round" />
  </symbol>

  <symbol id="icon_filter" viewBox="0 0 20 20" fill="none" xmlns="http://www.w3.org/2000/svg">
    <path d="M4.69668 15.3033C2.55169 13.1583 1.91002 9.93243 3.07088 7.12988C4.23174 4.32732 6.96651 2.5 9.99998 2.5C13.0334 2.5 15.7682 4.32732 16.9291 7.12988C18.0899 9.93243 17.4483 13.1583 15.3033 15.3033C12.3743 18.2322 7.62561 18.2322 4.69668 15.3033" stroke="white" stroke-linecap="round" stroke-linejoin="round" />
    <path d="M11.6666 6.66667H8.33325" stroke="currentColor" stroke-linecap="round" stroke-linejoin="round" />
    <path d="M12.5 9.58366H7.5" stroke="currentColor" stroke-linecap="round" stroke-linejoin="round" />
    <path d="M13.3334 12.4997H6.66675" stroke="currentColor" stroke-linecap="round" stroke-linejoin="round" />
  </symbol>

  <symbol id="icon_visualizacao" viewBox="0 0 20 20" fill="none" xmlns="http://www.w3.org/2000/svg">
    <path d="M8.33276 17.5038H11.6675" stroke="currentColor" stroke-linecap="round" stroke-linejoin="round" />
    <path d="M8.33276 2.49692H11.6675" stroke="currentColor" stroke-linecap="round" stroke-linejoin="round" />
    <path d="M2.49692 8.33301V11.6677" stroke="currentColor" stroke-linecap="round" stroke-linejoin="round" />
    <path d="M17.503 8.33301V11.6677" stroke="currentColor" stroke-linecap="round" stroke-linejoin="round" />
    <path d="M10.0001 11.6677V8.33301" stroke="currentColor" stroke-linecap="round" stroke-linejoin="round" />
    <path d="M11.6675 9.99985H8.33276" stroke="currentColor" stroke-linecap="round" stroke-linejoin="round" />
    <path d="M5.83155 17.5037V17.5037C3.98983 17.5037 2.49683 16.0107 2.49683 14.1689V14.1689" stroke="currentColor" stroke-linecap="round" stroke-linejoin="round" />
    <path d="M5.83155 17.5037C3.98983 17.5037 2.49683 16.0107 2.49683 14.1689" stroke="currentColor" stroke-linecap="round" stroke-linejoin="round" />
    <path d="M14.1685 2.49707C16.0102 2.49707 17.5032 3.99008 17.5032 5.83179" stroke="currentColor" stroke-linecap="round" stroke-linejoin="round" />
    <path d="M2.49683 5.83179C2.49683 3.99008 3.98983 2.49707 5.83155 2.49707" stroke="currentColor" stroke-linecap="round" stroke-linejoin="round" />
    <path d="M17.5032 14.1689C17.5032 16.0107 16.0102 17.5037 14.1685 17.5037" stroke="currentColor" stroke-linecap="round" stroke-linejoin="round" />
  </symbol>

  <symbol id="icon_menu_kanban" viewBox="0 0 18 18" fill="none" xmlns="http://www.w3.org/2000/svg">
    <path d="M3 3.375H15" stroke="currentColor" stroke-opacity="0.5" stroke-linecap="round" stroke-linejoin="round" />
    <path d="M3 7.125H12" stroke="currentColor" stroke-opacity="0.5" stroke-linecap="round" stroke-linejoin="round" />
    <path d="M3 10.875H15" stroke="currentColor" stroke-opacity="0.5" stroke-linecap="round" stroke-linejoin="round" />
    <path d="M3 14.625H9" stroke="currentColor" stroke-opacity="0.5" stroke-linecap="round" stroke-linejoin="round" />
  </symbol>

  <symbol id="icon_attach" viewBox="0 0 18 18" fill="none" xmlns="http://www.w3.org/2000/svg">
    <path opacity="0.5" d="M10.4092 6.28121L6.2947 10.3957C5.6752 11.0152 5.6752 12.0202 6.2947 12.6397V12.6397C6.9142 13.2592 7.9192 13.2592 8.5387 12.6397L13.9627 7.21571C15.0989 6.07946 15.0989 4.23746 13.9627 3.10121V3.10121C12.8264 1.96496 10.9844 1.96496 9.8482 3.10121L4.4242 8.52521C2.7712 10.1782 2.7712 12.8572 4.4242 14.5102V14.5102C6.0772 16.1632 8.7562 16.1632 10.4092 14.5102L13.7009 11.2185" stroke="currentColor" stroke-linecap="round" stroke-linejoin="round" />
  </symbol>

  <symbol id="icon_screen" viewBox="0 0 24 24" fill="none" xmlns="http://www.w3.org/2000/svg">
    <g opacity="0.6">
      <path d="M11 21H18C19.6569 21 21 19.6569 21 18V6C21 4.34315 19.6569 3 18 3H6C4.34315 3 3 4.34315 3 6V14" stroke="currentColor" stroke-linecap="round" stroke-linejoin="round" />
      <path d="M3 9H21" stroke="currentColor" stroke-linecap="round" stroke-linejoin="round" />
      <path d="M11 5.995L10.995 6L11 6.005L11.005 6L11 5.995" stroke="currentColor" stroke-linecap="round" stroke-linejoin="round" />
      <path d="M8.5 5.995L8.495 6L8.5 6.005L8.505 6L8.5 5.995" stroke="currentColor" stroke-linecap="round" stroke-linejoin="round" />
      <path d="M6 5.995L5.995 6L6 6.005L6.005 6L6 5.995" stroke="currentColor" stroke-linecap="round" stroke-linejoin="round" />
      <path d="M11 5.995L10.995 6L11 6.005L11.005 6L11 5.995" stroke="currentColor" stroke-linecap="round" stroke-linejoin="round" />
      <path d="M8.5 5.995L8.495 6L8.5 6.005L8.505 6L8.5 5.995" stroke="currentColor" stroke-linecap="round" stroke-linejoin="round" />
      <path d="M6 5.995L5.995 6L6 6.005L6.005 6L6 5.995" stroke="currentColor" stroke-linecap="round" stroke-linejoin="round" />
      <path d="M7 21H5" stroke="currentColor" stroke-linecap="round" stroke-linejoin="round" />
      <path d="M7 18H3" stroke="currentColor" stroke-linecap="round" stroke-linejoin="round" />
    </g>
  </symbol>


  <symbol id="icon_tags" viewBox="0 0 20 20" fill="none" xmlns="http://www.w3.org/2000/svg">
    <path d="M13.1728 6.82696C13.2935 6.9477 13.2935 7.14345 13.1728 7.26419C13.052 7.38492 12.8563 7.38492 12.7355 7.26419C12.6148 7.14345 12.6148 6.9477 12.7355 6.82696C12.8563 6.70622 13.052 6.70622 13.1728 6.82696" stroke="currentColor" stroke-linecap="round" stroke-linejoin="round" />
    <path fill-rule="evenodd" clip-rule="evenodd" d="M11.26 3.33301H14.9142C15.8825 3.33301 16.6667 4.11717 16.6667 5.08467V8.73884C16.6667 9.20384 16.4817 9.64884 16.1533 9.97801L9.145 16.9863C8.46083 17.6705 7.35167 17.6705 6.6675 16.9863L3.01333 13.3322C2.32917 12.648 2.32917 11.5388 3.01333 10.8547L10.0217 3.84634C10.35 3.51801 10.7958 3.33301 11.26 3.33301Z" stroke="currentColor" stroke-linecap="round" stroke-linejoin="round" />
    <path d="M4.84167 9.0332L10.9667 15.1582" stroke="currentColor" stroke-linecap="round" stroke-linejoin="round" />
  </symbol>


  <symbol id='icon_user' viewBox="0 0 20 20" fill="none" xmlns="http://www.w3.org/2000/svg">
    <path d="M16.6666 16.6667V16.0417C16.6666 14.0857 15.081 12.5 13.125 12.5H6.87498C4.91897 12.5 3.33331 14.0857 3.33331 16.0417V16.6667" stroke="currentColor" stroke-linecap="round" stroke-linejoin="round" />
    <ellipse cx="10" cy="5.83333" rx="3.33333" ry="3.33333" stroke="currentColor" stroke-linecap="round" stroke-linejoin="round" />
  </symbol>


  <symbol id="icon_date" viewBox="0 0 20 20" fill="none" xmlns="http://www.w3.org/2000/svg">
    <path d="M13.3333 1.66699V5.00033" stroke="currentColor" stroke-linecap="round" stroke-linejoin="round" />
    <path d="M6.66667 1.66699V5.00033" stroke="currentColor" stroke-linecap="round" stroke-linejoin="round" />
    <path d="M2.5 7.49967H17.5" stroke="currentColor" stroke-linecap="round" stroke-linejoin="round" />
    <path fill-rule="evenodd" clip-rule="evenodd" d="M15.8333 3.33301H4.16667C3.24583 3.33301 2.5 4.07884 2.5 4.99967V15.833C2.5 16.7538 3.24583 17.4997 4.16667 17.4997H15.8333C16.7542 17.4997 17.5 16.7538 17.5 15.833V4.99967C17.5 4.07884 16.7542 3.33301 15.8333 3.33301Z" stroke="currentColor" stroke-linecap="round" stroke-linejoin="round" />
    <path d="M5.84417 10.6077C5.72917 10.6077 5.63583 10.7011 5.63667 10.8161C5.63667 10.9311 5.73 11.0244 5.845 11.0244C5.96 11.0244 6.05333 10.9311 6.05333 10.8161C6.05333 10.7011 5.96 10.6077 5.84417 10.6077" stroke="currentColor" stroke-linecap="round" stroke-linejoin="round" />
    <path d="M10.0108 10.6077C9.89583 10.6077 9.8025 10.7011 9.80333 10.8161C9.80333 10.9311 9.89667 11.0244 10.0117 11.0244C10.1267 11.0244 10.22 10.9311 10.22 10.8161C10.22 10.7011 10.1267 10.6077 10.0108 10.6077" stroke="currentColor" stroke-linecap="round" stroke-linejoin="round" />
    <path d="M14.1775 10.6077C14.0625 10.6077 13.9692 10.7011 13.97 10.8161C13.97 10.9311 14.0633 11.0244 14.1783 11.0244C14.2933 11.0244 14.3867 10.9311 14.3867 10.8161C14.3867 10.7011 14.2933 10.6077 14.1775 10.6077" stroke="currentColor" stroke-linecap="round" stroke-linejoin="round" />
    <path d="M5.84417 13.9408C5.72917 13.9408 5.63583 14.0341 5.63667 14.1491C5.63667 14.2641 5.73 14.3574 5.845 14.3574C5.96 14.3574 6.05333 14.2641 6.05333 14.1491C6.05333 14.0341 5.96 13.9408 5.84417 13.9408" stroke="currentColor" stroke-linecap="round" stroke-linejoin="round" />
    <path d="M10.0108 13.9408C9.89583 13.9408 9.8025 14.0341 9.80333 14.1491C9.80333 14.2641 9.89667 14.3574 10.0117 14.3574C10.1267 14.3574 10.22 14.2641 10.22 14.1491C10.22 14.0341 10.1267 13.9408 10.0108 13.9408" stroke="currentColor" stroke-linecap="round" stroke-linejoin="round" />
  </symbol>


  <symbol id="icon_hours" viewBox="0 0 20 20" fill="none" xmlns="http://www.w3.org/2000/svg">
    <path d="M10 2.5C14.1421 2.5 17.5 5.85786 17.5 10C17.5 14.1421 14.1421 17.5 10 17.5C5.85786 17.5 2.5 14.1421 2.5 10C2.5 5.85786 5.85786 2.5 10 2.5" stroke="currentColor" stroke-linecap="round" stroke-linejoin="round" />
    <path d="M10.4167 5.83301V10.4163H6.66669" stroke="currentColor" stroke-linecap="round" stroke-linejoin="round" />
  </symbol>

  <symbol id="icon_descricao" viewBox="0 0 22 22" fill="none" xmlns="http://www.w3.org/2000/svg">
    <path d="M3.66667 4.12533H18.3333" stroke="currentColor" stroke-linecap="round" stroke-linejoin="round" />
    <path d="M3.66667 8.70833H14.6667" stroke="currentColor" stroke-linecap="round" stroke-linejoin="round" />
    <path d="M3.66667 13.2913H18.3333" stroke="currentColor" stroke-linecap="round" stroke-linejoin="round" />
    <path d="M3.66667 17.8753H11" stroke="currentColor" stroke-linecap="round" stroke-linejoin="round" />
  </symbol>


  <symbol id="icon_historic" viewBox="0 0 22 22" fill="none" xmlns="http://www.w3.org/2000/svg">
    <path d="M5.84375 11L3.78125 13.0625L1.71875 11" stroke="currentColor" stroke-linecap="round" stroke-linejoin="round" />
    <path d="M3.78125 11C3.78125 11.6362 3.86008 12.2522 3.99667 12.8471" stroke="currentColor" stroke-linecap="round" stroke-linejoin="round" />
    <path d="M20.2813 11C20.2813 6.44325 16.588 2.75 12.0313 2.75C7.4745 2.75 3.78125 6.44325 3.78125 11" stroke="currentColor" stroke-linecap="round" stroke-linejoin="round" />
    <path d="M12.0312 19.25C16.588 19.25 20.2813 15.5568 20.2813 11" stroke="currentColor" stroke-linecap="round" stroke-linejoin="round" />
    <path d="M5.2745 15.7256C6.76592 17.855 9.23358 19.2502 12.0312 19.2502" stroke="currentColor" stroke-linecap="round" stroke-linejoin="round" />
    <path d="M15.1213 13.6315L11.7737 11.6396V7.31934" stroke="currentColor" stroke-linecap="round" stroke-linejoin="round" />
  </symbol>

  <symbol id='icon_andamento' viewBox="0 0 20 20" fill="none" xmlns="http://www.w3.org/2000/svg">
    <path d="M9.99992 2.5V4.16667" stroke="currentColor" stroke-linecap="round" stroke-linejoin="round" />
    <path d="M9.99992 15.833V17.4997" stroke="currentColor" stroke-linecap="round" stroke-linejoin="round" />
    <path d="M5.87532 14.125L4.69678 15.3035" stroke="currentColor" stroke-linecap="round" stroke-linejoin="round" />
    <path d="M17.4999 9.99967H15.8333" stroke="currentColor" stroke-linecap="round" stroke-linejoin="round" />
    <path d="M4.16667 9.99967H2.5" stroke="currentColor" stroke-linecap="round" stroke-linejoin="round" />
    <path d="M15.3033 15.3035L14.1248 14.125" stroke="currentColor" stroke-linecap="round" stroke-linejoin="round" />
    <path d="M5.87532 5.87483L4.69678 4.69629" stroke="currentColor" stroke-linecap="round" stroke-linejoin="round" />
  </symbol>


  <symbol id="icon_concluido" viewBox="0 0 20 20" fill="none" xmlns="http://www.w3.org/2000/svg">
    <path fill-rule="evenodd" clip-rule="evenodd" d="M2.9125 11.2206L3.90833 12.524L4.12333 14.1465C4.2425 15.0465 4.95 15.7548 5.85 15.8748L7.47667 16.0923L8.77917 17.0873C9.5 17.6381 10.4992 17.6381 11.22 17.0873L12.5233 16.0915H12.5217L14.145 15.8765C15.045 15.7573 15.7533 15.0498 15.8733 14.1498L16.09 12.5231C16.09 12.524 16.5933 11.8648 17.0858 11.2206C17.6367 10.4998 17.6358 9.50063 17.0858 8.77979L16.0917 7.47563L15.8767 5.85313C15.7575 4.95313 15.05 4.24479 14.15 4.12479L12.5225 3.90813L11.22 2.91313C10.4992 2.36229 9.5 2.36229 8.77917 2.91313L7.47583 3.90813H7.4775L5.85417 4.12396C4.95417 4.24313 4.24583 4.95063 4.12583 5.85063L3.90833 7.47729C3.90833 7.47646 3.405 8.13563 2.9125 8.77979C2.3625 9.49979 2.3625 10.4998 2.9125 11.2206V11.2206Z" stroke="currentColor" stroke-linecap="round" stroke-linejoin="round" />
    <path d="M12.336 8.83496L9.41852 11.7525L7.66602 10.0016" stroke="currentColor" stroke-linecap="round" stroke-linejoin="round" />
  </symbol>


  <symbol id="icon_horas" viewBox="0 0 24 24" fill="none" xmlns="http://www.w3.org/2000/svg">
    <path d="M5.62537 18.3577C8.50409 21.2441 12.963 21.8361 16.4952 19.801C20.0274 17.7658 21.7514 13.6112 20.698 9.67314C19.6446 5.73504 16.0766 2.99622 12 2.99622" stroke="currentColor" stroke-linecap="round" stroke-linejoin="round" />
    <path d="M3.77789 15.4265C3.77786 15.4541 3.75546 15.4765 3.72785 15.4765C3.70024 15.4765 3.67786 15.4541 3.67785 15.4265C3.67784 15.3989 3.7002 15.3765 3.72781 15.3765C3.7411 15.3764 3.75384 15.3817 3.76324 15.3911C3.77264 15.4005 3.77791 15.4133 3.77789 15.4265" stroke="currentColor" stroke-linecap="round" stroke-linejoin="round" />
    <path d="M3.09637 12C3.09634 12.0276 3.07394 12.05 3.04633 12.05C3.01872 12.05 2.99634 12.0276 2.99633 12C2.99632 11.9724 3.01868 11.95 3.04629 11.9499C3.05958 11.9499 3.07233 11.9552 3.08172 11.9646C3.09112 11.974 3.09639 11.9867 3.09637 12" stroke="currentColor" stroke-linecap="round" stroke-linejoin="round" />
    <path d="M3.77789 8.57357C3.77789 8.60119 3.75551 8.62358 3.72789 8.62359C3.70027 8.6236 3.67787 8.60123 3.67785 8.57361C3.67783 8.54599 3.70019 8.52358 3.72781 8.52355C3.7411 8.52354 3.75385 8.52881 3.76324 8.53821C3.77264 8.5476 3.77791 8.56035 3.77789 8.57364" stroke="currentColor" stroke-linecap="round" stroke-linejoin="round" />
    <path d="M5.71881 5.66886C5.71877 5.69646 5.69637 5.71882 5.66876 5.71881C5.64116 5.7188 5.61878 5.69642 5.61877 5.66881C5.61875 5.6412 5.64111 5.61881 5.66872 5.61877C5.68201 5.61875 5.69476 5.62402 5.70416 5.63342C5.71356 5.64282 5.71883 5.65557 5.71881 5.66886" stroke="currentColor" stroke-linecap="round" stroke-linejoin="round" />
    <path d="M8.62358 3.72793C8.62355 3.75554 8.60115 3.7779 8.57354 3.77789C8.54593 3.77788 8.52355 3.75549 8.52354 3.72788C8.52353 3.70027 8.5459 3.67788 8.57351 3.67785C8.5868 3.67783 8.59955 3.6831 8.60895 3.6925C8.61835 3.70189 8.62362 3.71464 8.6236 3.72793" stroke="currentColor" stroke-linecap="round" stroke-linejoin="round" />
    <path d="M16.0494 12.6025H11.3975" stroke="currentColor" stroke-linecap="round" stroke-linejoin="round" />
    <path d="M11.3975 12.6025V6.99792" stroke="currentColor" stroke-linecap="round" stroke-linejoin="round" />
  </symbol>


  <symbol id="icon_date_time" viewBox="0 0 24 24" fill="none" xmlns="http://www.w3.org/2000/svg">
    <circle cx="17.5" cy="16.5" r="4.5" stroke="currentColor" stroke-linecap="round" stroke-linejoin="round" />
    <path d="M7 10H11" stroke="currentColor" stroke-linecap="round" stroke-linejoin="round" />
    <path d="M7.5 2V5" stroke="currentColor" stroke-linecap="round" stroke-linejoin="round" />
    <path d="M16.5 2V5" stroke="currentColor" stroke-linecap="round" stroke-linejoin="round" />
    <path d="M10 20H6C4.34315 20 3 18.6569 3 17V6.5C3 4.84315 4.34315 3.5 6 3.5H18C19.6569 3.5 21 4.84315 21 6.5V9" stroke="currentColor" stroke-linecap="round" stroke-linejoin="round" />
    <path d="M7 14H8" stroke="currentColor" stroke-linecap="round" stroke-linejoin="round" />
    <path d="M17.3929 14.9833V16.7369L18.7751 17.58" stroke="currentColor" stroke-linecap="round" stroke-linejoin="round" />
  </symbol>


  <symbol id='icon_filtros' viewBox="0 0 22 22" fill="none" xmlns="http://www.w3.org/2000/svg">
    <path d="M13.2917 12.375L18.0648 7.60188C18.2372 7.42954 18.3334 7.19671 18.3334 6.95379V4.58329C18.3334 4.07729 17.9227 3.66663 17.4167 3.66663H4.58341C4.07741 3.66663 3.66675 4.07729 3.66675 4.58329V6.95379C3.66675 7.19671 3.763 7.43046 3.93533 7.60188L8.70842 12.375" stroke="currentColor" stroke-linecap="round" stroke-linejoin="round" />
    <path d="M8.7085 12.375V18.1032C8.7085 18.8485 9.40883 19.3957 10.1321 19.2152L12.4237 18.6422C12.9334 18.5148 13.2918 18.0565 13.2918 17.5303V12.375" stroke="currentColor" stroke-linecap="round" stroke-linejoin="round" />
  </symbol>


  <symbol id="icon_tempo_atividade" viewBox="0 0 24 24" fill="none" xmlns="http://www.w3.org/2000/svg">
    <path d="M18.0025 9.99913V7.82623C18.0025 7.29601 17.7914 6.78679 17.4163 6.41164L14.5871 3.58246C14.212 3.2073 13.7027 2.99622 13.1725 2.99622H5.99754C4.89208 2.99622 3.9967 3.89159 3.9967 4.99705V19.0029C3.9967 20.1083 4.89208 21.0037 5.99754 21.0037H9.9992" stroke="currentColor" stroke-linecap="round" stroke-linejoin="round" />
    <path d="M18.0026 7.9983H14.0009C13.4487 7.9983 13.0005 7.55011 13.0005 6.99788V2.99622" stroke="currentColor" stroke-linecap="round" stroke-linejoin="round" />
    <path d="M16.5019 22.0041C14.0158 22.0041 12 19.9883 12 17.5022C12 15.0162 14.0158 13.0004 16.5019 13.0004C18.9889 13.0004 21.0037 15.0162 21.0037 17.5022C21.0037 19.9883 18.9889 22.0041 16.5019 22.0041" stroke="currentColor" stroke-linecap="round" stroke-linejoin="round" />
    <path d="M16.3949 15.9846V17.7434L17.7775 18.5867" stroke="currentColor" stroke-linecap="round" stroke-linejoin="round" />
  </symbol>


  <symbol id="icon_edit" viewBox="0 0 24 24" fill="none" xmlns="http://www.w3.org/2000/svg">
    <path fill-rule="evenodd" clip-rule="evenodd" d="M5.293 15.6195L15.619 5.29348C16.009 4.90348 16.642 4.90348 17.032 5.29348L18.708 6.96948C19.098 7.35948 19.098 7.99248 18.708 8.38248L8.381 18.7075C8.194 18.8955 7.94 19.0005 7.675 19.0005H5V16.3255C5 16.0605 5.105 15.8065 5.293 15.6195Z" stroke="currentColor" stroke-linecap="round" stroke-linejoin="round" />
    <path d="M13.75 7.16016L16.84 10.2502" stroke="currentColor" stroke-linecap="round" stroke-linejoin="round" />
  </symbol>


  <symbol id="icon_excel" viewBox="0 0 22 22" fill="none" xmlns="http://www.w3.org/2000/svg">
    <path d="M18 6H14V6C13.4477 6 13 5.55229 13 5V1" stroke="currentColor" stroke-width="1.5" stroke-linecap="round" stroke-linejoin="round"/>
    <path d="M4 6V3V3C4 1.89543 4.89543 1 6 1H13.172V1C13.7024 1.00011 14.211 1.2109 14.586 1.586L17.414 4.414V4.414C17.7891 4.78899 17.9999 5.29761 18 5.828V17C18 18.1046 17.1046 19 16 19H6V19C4.89543 19 4 18.1046 4 17V16" stroke="currentColor" stroke-width="1.5" stroke-linecap="round" stroke-linejoin="round"/>
    <path d="M7.56982 12.75L4.56982 9.25" stroke="currentColor" stroke-width="1.5" stroke-linecap="round" stroke-linejoin="round"/>
    <path d="M4.56982 12.75L7.56982 9.25" stroke="currentColor" stroke-width="1.5" stroke-linecap="round" stroke-linejoin="round"/>
    <path d="M9.34316 6H2.65684C1.74179 6 1 6.74179 1 7.65684V14.3432C1 15.2582 1.74179 16 2.65684 16H9.34316C10.2582 16 11 15.2582 11 14.3432V7.65684C11 6.74179 10.2582 6 9.34316 6Z" stroke="currentColor" stroke-width="1.5" stroke-linecap="round" stroke-linejoin="round"/>
  </symbol>


  <svg id="icon_close" viewBox="0 0 48 48" fill="none" xmlns="http://www.w3.org/2000/svg">
    <path d="M16 16L32 32" stroke="currentColor" stroke-linecap="round" stroke-linejoin="round"/>
    <path d="M32 16L16 32" stroke="currentColor" stroke-linecap="round" stroke-linejoin="round"/>
  </svg>


  <svg id="icon_donwload" viewBox="0 0 20 20" fill="none" xmlns="http://www.w3.org/2000/svg">
    <path d="M12.9646 9.25885L10 12.2234L7.03546 9.25885" stroke="currentColor" stroke-linecap="round" stroke-linejoin="round"/>
    <path d="M10 3.33054V12.2234" stroke="currentColor" stroke-linecap="round" stroke-linejoin="round"/>
    <path d="M16.6695 13.7048C16.6695 15.3421 15.3422 16.6693 13.7049 16.6693H6.29513C4.65785 16.6693 3.33057 15.3421 3.33057 13.7048" stroke="currentColor" stroke-linecap="round" stroke-linejoin="round"/>
  </svg>


  <svg id="icon_view" viewBox="0 0 20 20" fill="none" xmlns="http://www.w3.org/2000/svg">
    <path fill-rule="evenodd" clip-rule="evenodd" d="M2.59834 10.3892C2.46751 10.1467 2.46751 9.85249 2.59834 9.60999C4.17501 6.69416 7.08751 4.16666 10 4.16666C12.9125 4.16666 15.825 6.69416 17.4017 9.61082C17.5325 9.85332 17.5325 10.1475 17.4017 10.39C15.825 13.3058 12.9125 15.8333 10 15.8333C7.08751 15.8333 4.17501 13.3058 2.59834 10.3892Z" stroke="currentColor" stroke-linecap="round" stroke-linejoin="round"/>
    <path d="M11.7678 8.23223C12.7441 9.20854 12.7441 10.7915 11.7678 11.7678C10.7915 12.7441 9.20854 12.7441 8.23223 11.7678C7.25592 10.7915 7.25592 9.20854 8.23223 8.23223C9.20854 7.25592 10.7915 7.25592 11.7678 8.23223" stroke="currentColor" stroke-linecap="round" stroke-linejoin="round"/>
  </svg>

</svg>
